<?xml version="1.0" standalone="no"?>
<!DOCTYPE svg PUBLIC "-//W3C//DTD SVG 20010904//EN"
 "http://www.w3.org/TR/2001/REC-SVG-20010904/DTD/svg10.dtd">
<svg version="1.0" xmlns="http://www.w3.org/2000/svg"
 width="705.000000pt" height="705.000000pt" viewBox="0 0 705.000000 705.000000"
 preserveAspectRatio="xMidYMid meet">
<metadata>
Created by potrace 1.14, written by Peter Selinger 2001-2017
</metadata>
<g transform="translate(0.000000,705.000000) scale(0.100000,-0.100000)"
fill="#000000" stroke="none">
<path d="M6586 5813 c-4 -5 -13 -8 -19 -8 -7 -1 -11 -5 -10 -10 1 -6 -10 -11
-23 -11 -13 -1 -32 -5 -42 -9 -27 -12 -45 -14 -56 -7 -11 6 -36 11 -88 15 -14
1 -24 5 -21 9 6 11 -9 10 -26 -1 -9 -6 -21 -5 -33 2 -15 10 -21 9 -28 -3 -5
-8 -10 -10 -10 -5 0 6 -20 12 -45 12 -32 1 -43 -2 -38 -10 5 -9 3 -9 -8 0 -8
7 -36 11 -62 10 -26 -1 -47 2 -47 6 0 5 -5 5 -11 2 -5 -4 -56 -8 -112 -9 -56
-1 -108 -5 -115 -9 -7 -5 -12 -3 -12 3 0 7 -5 8 -12 3 -7 -4 -53 -9 -103 -9
-210 -4 -260 -7 -267 -18 -5 -8 -8 -7 -8 2 0 10 -5 10 -20 2 -15 -8 -20 -8
-20 1 0 8 -4 8 -15 -1 -12 -10 -15 -10 -15 1 0 11 -3 11 -11 -1 -8 -11 -12
-12 -15 -3 -4 8 -13 9 -27 4 -12 -4 -28 -6 -36 -3 -9 3 -11 0 -6 -8 6 -9 3 -9
-14 -1 -11 7 -21 8 -21 4 0 -4 -49 -8 -109 -8 -60 0 -108 -2 -106 -6 2 -3 -2
-6 -10 -6 -8 0 -11 5 -8 11 4 6 -1 5 -10 -3 -9 -7 -17 -9 -17 -4 0 17 -30 10
-31 -6 0 -9 -3 -11 -5 -4 -3 6 -17 9 -32 7 -44 -7 -54 -13 -46 -26 5 -9 2 -8
-10 1 -15 12 -17 12 -14 0 2 -9 -4 -13 -15 -11 -16 3 -20 -16 -6 -28 3 -3 -1
-13 -10 -22 -16 -16 -17 -16 -17 2 0 10 5 16 10 13 5 -3 6 -1 2 6 -9 14 -26 5
-26 -14 0 -8 -5 -17 -12 -21 -7 -5 -9 -2 -4 7 4 8 1 6 -7 -3 -8 -10 -17 -14
-21 -10 -4 4 -7 2 -6 -3 1 -6 2 -19 1 -30 -1 -16 -3 -17 -10 -5 -6 8 -7 18 -4
24 4 5 1 6 -6 1 -7 -4 -11 -16 -8 -26 3 -11 1 -16 -4 -13 -13 8 -49 -5 -49
-18 0 -7 4 -7 13 0 9 7 17 8 27 1 13 -9 13 -10 0 -6 -8 2 -24 -3 -34 -12 -13
-11 -17 -11 -11 -2 5 9 3 12 -6 9 -8 -3 -13 -11 -11 -18 1 -6 -7 -14 -18 -17
-11 -3 -20 -9 -20 -14 0 -14 -53 -36 -90 -37 -19 -1 -45 6 -57 14 -27 17 -47
18 -37 2 6 -10 5 -10 -7 -1 -22 18 -50 -9 -53 -51 -2 -20 1 -36 6 -36 5 0 6
-4 3 -10 -3 -5 -2 -10 3 -10 5 0 9 -6 9 -12 0 -7 7 -29 16 -48 25 -55 27 -103
6 -150 -10 -23 -16 -47 -12 -53 4 -6 0 -8 -10 -4 -20 8 -22 -4 -4 -22 10 -11
9 -12 -2 -6 -10 6 -13 4 -8 -7 3 -9 0 -21 -6 -27 -8 -8 -7 -11 3 -11 10 0 8
-4 -5 -13 -12 -10 -15 -16 -6 -21 6 -4 8 -14 3 -24 -4 -9 -7 -26 -7 -37 1 -11
-4 -26 -9 -34 -9 -12 -8 -13 4 -6 12 7 13 6 3 -6 -10 -12 -10 -18 0 -29 10
-10 9 -11 -2 -5 -11 6 -13 4 -8 -8 3 -9 1 -19 -5 -23 -7 -4 -6 -9 3 -15 12 -7
12 -9 0 -9 -7 0 -11 -6 -8 -15 4 -8 2 -17 -4 -21 -6 -3 -8 -26 -6 -50 2 -23 0
-41 -5 -38 -4 3 -8 2 -9 -3 -2 -21 -8 -45 -13 -50 -3 -3 -1 -15 5 -26 6 -10 7
-17 2 -14 -5 3 -8 -29 -8 -71 1 -42 -3 -83 -8 -89 -7 -9 -4 -13 9 -13 16 0 17
-2 4 -10 -12 -8 -12 -10 5 -10 17 0 17 -2 5 -10 -13 -8 -12 -10 3 -10 9 0 16
-6 15 -12 -2 -7 3 -12 9 -11 7 2 15 -8 19 -22 3 -14 10 -25 16 -25 5 0 7 -4 4
-9 -3 -4 3 -16 13 -25 12 -11 16 -25 13 -47 -3 -22 -1 -30 7 -25 6 4 11 2 11
-4 0 -6 5 -8 10 -5 6 3 10 3 11 -2 0 -4 2 -16 4 -25 2 -10 -2 -18 -8 -19 -7 0
-1 -5 13 -10 24 -10 24 -11 6 -25 -11 -8 -15 -14 -9 -14 6 0 13 -7 17 -15 5
-13 2 -14 -17 -4 -20 11 -21 11 -8 -4 7 -10 10 -17 6 -17 -4 0 -2 -7 5 -15 10
-13 11 -18 1 -28 -10 -9 -11 -8 -6 4 4 10 0 19 -10 23 -11 4 -14 2 -9 -6 13
-20 14 -59 2 -52 -7 4 -8 2 -4 -5 4 -6 12 -9 17 -6 5 4 9 2 9 -4 0 -5 -5 -11
-12 -13 -13 -5 -20 -38 -8 -38 4 0 11 -7 14 -16 6 -15 4 -15 -10 -3 -16 13
-16 12 -5 -8 12 -23 6 -29 -22 -24 -5 1 -6 -3 -2 -9 3 -6 10 -8 15 -5 11 7 7
-22 -5 -32 -4 -4 -5 -2 0 6 5 10 4 12 -4 7 -6 -4 -9 -12 -6 -17 4 -5 8 -17 10
-28 3 -15 -1 -18 -18 -14 -13 3 -18 1 -12 -4 16 -12 17 -55 2 -46 -9 5 -9 3 0
-8 16 -20 17 -31 1 -40 -11 -8 -11 -10 1 -18 8 -5 9 -10 2 -12 -6 -2 -12 -41
-14 -92 -3 -48 -7 -91 -10 -94 -4 -3 -2 -15 4 -26 9 -15 8 -18 -2 -12 -9 6
-11 2 -7 -13 4 -13 1 -22 -5 -22 -8 0 -7 -4 2 -9 11 -7 11 -9 0 -14 -10 -4 -9
-6 4 -6 20 -1 21 -10 6 -31 -9 -13 -10 -12 -5 3 3 10 2 15 -3 12 -11 -6 -8
-52 4 -63 4 -4 5 -1 1 6 -4 6 -2 12 4 12 6 0 8 -12 4 -32 -4 -18 -7 -47 -8
-65 -1 -26 -4 -29 -18 -22 -13 7 -15 5 -11 -11 3 -11 10 -17 16 -13 6 3 7 1 3
-6 -4 -6 -16 -9 -26 -6 -10 3 -21 1 -25 -4 -3 -7 0 -8 9 -5 9 3 16 1 16 -6 0
-6 6 -8 13 -4 9 5 9 4 0 -6 -6 -7 -9 -19 -6 -27 3 -8 0 -19 -8 -24 -10 -6 -7
-9 11 -10 23 0 23 -1 5 -9 l-20 -9 20 0 c17 -1 17 -3 5 -11 -13 -8 -13 -10 1
-10 20 0 32 -27 17 -36 -6 -4 -8 -3 -4 4 3 6 2 13 -3 16 -5 4 -8 -2 -6 -11 2
-10 4 -22 4 -26 1 -5 4 -6 9 -3 4 2 8 -11 8 -29 0 -19 -3 -32 -7 -29 -5 2 -6
11 -3 18 3 8 1 17 -4 20 -5 3 -8 -7 -6 -23 2 -17 -3 -34 -11 -41 -8 -7 -12
-16 -9 -21 3 -5 -6 -14 -20 -21 -14 -6 -26 -16 -26 -21 0 -5 7 -4 15 3 10 9
15 9 15 1 0 -10 -14 -15 -23 -8 -2 1 -11 -4 -19 -10 -12 -10 -15 -10 -15 2 0
8 3 12 7 10 4 -2 7 3 7 12 0 12 -5 10 -20 -8 l-20 -24 8 24 c5 17 4 21 -5 16
-7 -4 -18 2 -26 14 -9 12 -20 18 -27 14 -9 -5 -9 -3 0 8 9 11 9 19 2 26 -8 8
-7 13 2 18 8 5 10 4 5 -3 -4 -7 -2 -12 3 -12 18 0 12 18 -11 36 -13 9 -16 14
-8 11 10 -3 16 2 16 13 0 10 -3 18 -6 18 -27 -2 -32 2 -19 19 13 15 12 15 -8
4 -13 -6 -23 -7 -23 -2 0 5 6 12 13 14 6 3 1 6 -12 6 -16 1 -21 5 -18 15 4 10
1 13 -7 10 -8 -3 -20 3 -27 14 -8 10 -22 18 -32 16 -19 -2 -41 28 -29 41 4 4
-3 2 -16 -4 -23 -12 -23 -12 -6 13 13 21 14 25 2 21 -18 -7 -44 20 -29 30 6 3
-10 24 -37 47 -26 22 -58 50 -72 61 -14 12 -31 20 -37 19 -8 -2 -10 4 -6 15 3
10 2 15 -2 11 -5 -5 -14 1 -22 12 -8 11 -19 20 -25 20 -6 0 -24 16 -41 35 -16
19 -34 32 -40 28 -5 -3 -8 -2 -4 3 8 14 -20 47 -34 38 -7 -4 -10 -3 -6 3 3 5
-3 15 -13 23 -10 8 -16 18 -13 24 4 6 -1 5 -10 -3 -15 -12 -17 -11 -17 2 0 11
-5 14 -17 10 -15 -6 -16 -4 -5 9 10 13 10 18 1 24 -8 4 -9 3 -5 -4 4 -7 2 -12
-3 -12 -6 0 -11 6 -11 14 0 17 -27 29 -35 16 -4 -6 -14 -10 -23 -9 -13 0 -12
2 4 9 23 9 41 30 27 30 -5 0 -15 -6 -22 -12 -9 -9 -12 -9 -7 -1 3 6 0 18 -8
26 -8 8 -12 17 -9 20 3 4 -4 5 -15 2 -12 -2 -25 1 -28 7 -4 7 -2 8 4 4 7 -4
12 -1 12 9 0 9 -3 14 -7 12 -5 -3 -21 13 -38 34 -16 21 -35 38 -41 39 -6 0
-23 14 -38 32 -14 17 -26 28 -26 23 0 -4 -9 2 -20 15 -11 13 -20 19 -20 14 0
-5 -8 3 -17 16 -26 37 -47 60 -54 60 -4 0 -32 25 -63 55 -30 30 -60 55 -66 55
-5 0 -10 6 -10 13 0 6 -29 34 -65 61 -35 26 -64 51 -63 55 2 12 -16 46 -29 54
-7 5 -11 12 -8 18 4 5 2 9 -3 9 -5 0 -15 13 -22 30 -7 16 -16 27 -21 24 -5 -3
-9 2 -9 10 0 9 -7 16 -16 16 -8 0 -13 3 -11 8 2 4 -6 17 -19 30 -13 12 -24 19
-24 15 0 -4 -5 0 -11 10 -5 9 -16 17 -22 17 -7 0 -19 9 -27 19 -7 11 -17 18
-22 15 -4 -3 -8 2 -8 11 0 9 -4 14 -8 11 -5 -3 -32 17 -61 44 -50 47 -86 63
-123 57 -22 -4 -36 -17 -18 -17 7 0 11 -2 8 -5 -9 -10 -38 7 -31 18 3 6 1 7
-6 3 -9 -6 -9 -11 0 -22 7 -9 8 -14 3 -13 -22 4 -35 -2 -28 -13 5 -10 4 -10
-6 -1 -9 8 -19 9 -31 3 -10 -6 -20 -6 -23 -2 -6 9 -76 7 -121 -4 -16 -4 -167
-7 -335 -8 -168 -1 -311 -5 -319 -10 -9 -6 -12 -5 -8 1 3 5 0 10 -8 10 -8 0
-13 -5 -12 -10 1 -6 -17 -11 -40 -12 -23 0 -45 -4 -49 -8 -4 -4 -13 -2 -21 4
-10 9 -13 8 -13 0 0 -7 -5 -9 -12 -5 -16 10 -199 12 -220 2 -10 -5 -20 -4 -23
2 -5 8 -11 7 -21 -1 -8 -6 -14 -7 -14 -2 0 7 -77 8 -141 1 -15 -2 -44 -27 -44
-38 0 -3 -3 -4 -6 -3 -4 1 -10 -9 -13 -23 -4 -14 -10 -22 -15 -20 -5 3 -14 -8
-21 -24 -7 -17 -17 -30 -22 -30 -5 0 -6 -4 -3 -10 3 -5 2 -10 -2 -10 -9 0 -49
-99 -45 -112 1 -5 -3 -8 -8 -8 -6 0 -10 -6 -10 -14 0 -7 -11 -39 -25 -70 -14
-31 -23 -56 -20 -56 2 0 -4 -20 -15 -45 -11 -25 -19 -46 -19 -48 0 -3 -11 -37
-24 -72 -7 -16 -12 -32 -13 -35 0 -3 -6 -25 -13 -50 -8 -25 -22 -73 -32 -107
-14 -48 -16 -74 -10 -115 5 -29 7 -61 5 -70 -2 -10 -6 -27 -9 -39 -2 -12 -9
-27 -15 -33 -5 -7 -7 -16 -3 -19 3 -4 0 -13 -7 -22 -7 -8 -9 -15 -4 -15 4 0
-1 -7 -12 -16 -10 -8 -12 -12 -4 -8 12 6 13 5 4 -7 -6 -8 -16 -34 -22 -58 -9
-38 -8 -46 6 -57 14 -10 15 -15 4 -26 -11 -11 -12 -10 -6 7 5 15 4 17 -5 9
-12 -11 -5 -47 8 -39 6 3 7 -35 1 -42 -3 -3 -4 -8 -15 -40 -4 -13 -12 -23 -17
-23 -5 0 -7 -4 -4 -9 3 -4 -1 -16 -8 -27 -8 -10 -11 -25 -8 -33 4 -10 1 -13
-10 -9 -17 7 -19 -26 -4 -51 7 -11 5 -13 -7 -8 -11 4 -15 1 -12 -14 2 -10 7
-24 11 -31 4 -7 3 -8 -4 -4 -7 4 -12 3 -12 -3 0 -6 -8 -8 -18 -5 -10 4 -13 2
-7 -3 6 -4 12 -17 13 -28 2 -11 9 -23 15 -27 8 -5 8 -8 2 -8 -6 0 -16 5 -21
10 -7 7 -11 6 -11 -5 0 -8 4 -15 9 -15 4 0 8 -7 8 -16 0 -9 5 -12 13 -8 8 5 8
2 -2 -9 -7 -9 -10 -17 -6 -17 4 0 0 -11 -9 -24 -12 -18 -12 -26 -3 -29 9 -4 9
-6 0 -6 -7 -1 -13 -8 -13 -16 0 -8 -4 -15 -10 -15 -5 0 -9 -3 -8 -7 4 -14 -13
-53 -23 -53 -6 0 -5 -8 1 -20 6 -11 7 -19 3 -18 -4 2 -18 -7 -31 -20 -24 -24
-29 -38 -10 -26 7 4 8 3 4 -5 -4 -6 -11 -9 -16 -6 -12 7 -21 -9 -25 -46 -3
-20 0 -27 7 -23 7 5 8 2 2 -7 -14 -23 -15 -52 -2 -61 10 -6 9 -8 -2 -8 -13 0
-13 -1 0 -10 13 -9 13 -11 0 -21 -13 -9 -12 -10 2 -5 10 3 20 1 23 -4 4 -6 1
-10 -4 -10 -6 0 -11 -5 -11 -11 0 -6 7 -9 15 -6 18 7 29 -8 18 -25 -13 -21
-12 -38 2 -38 8 0 11 -8 8 -22 -4 -18 -3 -20 6 -8 8 12 10 11 8 -7 0 -12 -5
-19 -9 -17 -4 3 -8 0 -8 -5 0 -6 5 -11 11 -11 5 0 7 -5 4 -10 -4 -6 -2 -17 5
-25 8 -10 8 -15 -1 -21 -8 -4 -9 -3 -5 4 4 7 4 12 -1 12 -10 0 -33 -49 -33
-70 0 -10 -9 -27 -20 -40 -11 -13 -20 -20 -20 -15 0 4 -11 0 -25 -9 -14 -9
-25 -13 -25 -9 0 5 -5 0 -11 -10 -6 -9 -14 -15 -19 -12 -11 7 0 -36 14 -54 9
-12 8 -13 -7 -8 -15 5 -16 4 -7 -13 13 -25 13 -31 -2 -28 -8 2 -13 -6 -12 -18
0 -14 -4 -20 -13 -17 -7 3 -13 0 -13 -7 0 -6 -5 -8 -11 -4 -7 4 -10 1 -7 -7 3
-8 11 -13 17 -11 7 1 9 -2 6 -8 -4 -6 -13 -9 -21 -6 -7 3 -16 1 -19 -4 -3 -4
1 -11 7 -13 10 -4 10 -6 0 -6 -7 -1 -10 -5 -7 -11 3 -5 2 -10 -4 -10 -5 0 -8
-11 -6 -25 1 -14 -3 -25 -9 -25 -7 0 -8 -3 -1 -8 6 -4 10 -14 10 -22 -2 -25
15 -51 28 -44 7 4 9 4 5 -1 -7 -7 18 -65 28 -65 3 0 3 4 0 8 -3 5 1 9 9 9 8 0
14 -3 13 -6 -2 -21 5 -29 22 -26 11 2 20 0 20 -6 0 -5 6 -9 14 -9 8 0 17 -7
20 -16 3 -8 10 -12 16 -9 5 3 10 1 10 -5 0 -7 6 -10 13 -7 6 2 31 -4 54 -14
22 -10 44 -15 47 -12 3 4 6 2 6 -3 0 -5 10 -11 23 -12 25 -2 62 -10 62 -12 0
-4 52 -12 70 -12 64 2 175 38 175 58 0 8 3 14 8 14 13 0 62 47 55 54 -3 3 0 6
8 6 8 0 22 8 31 18 8 9 35 36 59 59 75 72 160 173 146 173 -3 0 5 12 18 26 20
22 22 29 13 50 -6 13 -15 24 -20 24 -4 0 -8 7 -8 15 0 8 -4 15 -10 15 -5 0
-10 7 -10 15 0 8 -4 15 -10 15 -5 0 -10 7 -10 15 0 9 -7 18 -15 21 -8 4 -12
10 -9 15 3 5 0 9 -7 9 -7 0 -9 3 -6 6 9 10 -12 46 -23 39 -6 -4 -7 1 -3 11 4
12 3 15 -6 10 -6 -4 -11 -4 -10 1 4 22 -2 43 -11 38 -5 -3 -10 3 -10 14 0 12
-6 21 -14 21 -8 0 -18 5 -22 12 -5 8 -2 9 10 5 14 -6 15 -3 6 13 -6 11 -15 20
-20 20 -6 0 -10 7 -10 15 0 8 -8 15 -17 16 -15 0 -15 2 2 9 16 7 17 9 3 9 -9
1 -20 10 -23 22 -5 14 -13 19 -25 16 -14 -4 -17 0 -15 14 2 11 0 19 -6 19 -9
0 -13 -15 -10 -34 1 -5 -5 -4 -13 4 -19 15 -21 24 -4 14 7 -4 8 -3 4 5 -10 15
-26 4 -26 -17 0 -21 -32 -43 -49 -33 -14 9 -11 81 4 81 6 0 7 3 0 8 -16 11
-17 34 -3 44 10 6 10 10 -2 18 -8 5 -10 10 -4 10 11 0 28 35 25 53 -1 4 4 7
10 7 5 0 7 5 4 10 -3 6 0 10 7 10 10 0 10 2 -1 9 -9 6 -10 10 -2 16 9 5 9 10
0 21 -10 12 -9 13 4 8 12 -4 14 -1 10 15 -3 12 -1 21 5 21 6 0 9 9 7 19 -2 11
3 22 13 26 14 5 14 7 2 15 -12 8 -12 10 -1 10 8 0 11 7 8 20 -3 11 0 18 7 17
6 -1 10 8 10 21 -1 12 2 22 6 22 5 0 7 8 5 18 -1 9 2 22 7 29 5 7 7 17 3 23
-3 5 -1 10 6 10 6 0 9 8 6 20 -3 11 -1 18 4 14 5 -3 9 3 9 14 0 10 3 22 7 25
3 4 8 19 10 35 5 47 6 52 14 52 4 0 6 9 4 20 -2 11 0 20 5 20 5 0 7 7 4 15 -4
8 -1 15 6 15 8 0 11 9 8 25 -3 15 -1 22 5 18 6 -4 8 0 4 10 -4 10 0 20 10 25
11 7 12 11 4 16 -8 5 -7 12 4 22 8 9 13 20 10 25 -4 5 -2 9 4 9 6 0 8 7 5 15
-4 8 -1 15 4 15 6 0 9 9 7 20 -3 13 2 20 13 20 11 0 13 3 5 11 -7 7 -5 22 9
52 11 22 22 48 23 56 2 9 4 18 5 21 1 3 2 8 1 13 0 4 3 7 7 7 4 0 9 12 10 28
3 32 30 119 47 147 6 11 11 29 11 40 -1 11 2 23 6 26 8 5 11 24 23 114 8 61
10 69 19 84 6 10 5 12 -2 7 -7 -4 -12 -3 -12 3 0 5 5 13 11 17 8 4 7 9 -2 15
-11 7 -11 9 -1 9 7 0 10 5 7 10 -4 6 -1 9 7 8 7 -2 12 3 11 10 -2 6 4 12 12
12 8 0 15 7 15 15 0 9 6 12 17 8 9 -4 14 -2 11 3 -4 5 10 10 30 11 21 0 46 3
57 6 11 2 23 -1 27 -7 6 -8 8 -8 8 1 0 8 10 9 37 1 38 -10 220 -17 229 -9 3 3
64 4 137 3 73 -2 162 -3 199 -4 46 -1 65 -5 61 -12 -5 -8 -3 -8 8 0 15 11 18
11 117 0 65 -7 78 -11 152 -44 49 -21 116 -51 167 -73 18 -8 33 -17 33 -21 0
-5 6 -8 14 -8 7 0 19 -7 26 -15 7 -9 15 -14 17 -12 3 4 111 -93 187 -168 38
-38 144 -154 226 -248 19 -22 45 -51 57 -64 12 -13 20 -23 17 -23 -3 0 7 -11
22 -25 15 -14 31 -25 36 -25 5 0 6 -4 3 -10 -3 -5 1 -10 9 -10 9 0 23 -11 32
-25 9 -13 31 -34 50 -46 19 -11 34 -25 34 -31 0 -6 21 -31 46 -55 25 -23 43
-43 40 -43 -4 0 2 -10 14 -22 11 -12 20 -28 20 -35 0 -8 4 -12 9 -9 12 8 23
-22 14 -37 -3 -7 -3 -9 2 -5 5 5 15 -1 23 -13 8 -11 20 -18 28 -15 8 3 11 0 7
-10 -5 -12 7 -19 29 -15 5 0 7 -2 7 -7 -3 -18 2 -33 9 -28 5 3 15 -6 22 -19 7
-14 17 -25 22 -25 4 0 23 -15 43 -32 19 -18 55 -51 81 -73 96 -84 131 -122
158 -166 14 -26 26 -51 25 -55 -3 -21 2 -35 11 -29 6 3 7 -1 4 -10 -4 -10 2
-24 15 -36 22 -20 29 -35 11 -24 -6 3 -7 -1 -4 -9 3 -9 11 -13 17 -9 6 4 8 -2
5 -15 -4 -12 -3 -22 2 -22 4 0 11 -7 14 -16 3 -8 2 -12 -4 -9 -6 3 -10 1 -10
-4 0 -6 5 -11 12 -11 6 0 9 -3 5 -6 -3 -3 -2 -17 3 -30 9 -21 2 -31 -15 -21
-2 1 -11 -7 -20 -18 -9 -11 -13 -13 -9 -5 7 13 5 13 -9 1 -15 -12 -15 -31 -1
-31 3 0 2 5 -2 12 -4 7 -3 8 5 4 16 -10 4 -26 -14 -19 -11 4 -13 1 -8 -13 5
-13 3 -16 -9 -11 -13 5 -15 0 -12 -20 4 -23 3 -24 -11 -9 -22 21 -28 20 -16
-2 7 -14 6 -19 -4 -19 -8 0 -12 4 -9 9 3 4 -2 5 -11 2 -11 -5 -13 -10 -5 -18
7 -9 4 -12 -13 -12 -24 1 -27 -12 -16 -56 6 -20 4 -28 -6 -28 -7 0 -15 -7 -19
-15 -3 -9 -18 -15 -36 -15 -17 0 -51 -5 -75 -11 -39 -10 -46 -9 -66 10 -13 12
-17 21 -10 21 9 0 8 5 -3 16 -9 8 -21 12 -27 8 -8 -4 -9 -3 -5 4 4 7 3 12 -2
12 -6 0 -12 -6 -15 -14 -3 -8 -14 -13 -24 -11 -10 1 -23 -2 -30 -7 -7 -5 -17
-7 -22 -3 -7 4 -8 -1 -4 -12 6 -16 5 -16 -10 -4 -9 7 -17 10 -17 5 0 -5 -10 2
-21 16 -11 14 -18 19 -14 13 3 -7 1 -13 -4 -13 -6 0 -11 -7 -11 -15 0 -8 -9
-32 -21 -54 -11 -22 -22 -46 -23 -53 -9 -50 -89 -158 -116 -158 -18 0 -10 -22
10 -27 32 -8 50 -98 36 -178 -2 -11 2 -23 8 -27 7 -5 8 -11 1 -15 -5 -5 -11
-28 -12 -53 -1 -25 -7 -46 -13 -48 -8 -3 -8 -8 0 -17 8 -10 8 -15 -1 -21 -8
-4 -9 -3 -5 4 4 7 3 12 -3 12 -5 0 -9 -9 -8 -19 1 -22 16 -23 34 -1 11 13 12
12 6 -5 -6 -18 -5 -18 10 -6 9 7 17 11 17 8 0 -3 15 0 34 8 18 8 36 11 40 8 8
-8 145 -15 247 -12 42 2 46 4 42 23 -3 12 -1 17 4 11 4 -5 14 -11 22 -13 12
-3 12 0 2 12 -11 13 -9 15 17 11 22 -2 29 0 26 10 -3 7 0 16 7 21 8 4 10 3 5
-4 -4 -7 -2 -12 3 -12 6 0 11 5 11 10 0 17 29 11 55 -12 13 -11 22 -25 19 -30
-3 -4 0 -8 7 -8 7 0 10 -3 6 -6 -3 -4 1 -13 9 -21 18 -19 106 -24 100 -6 -3 7
1 10 9 6 8 -3 13 -9 10 -13 -3 -5 4 -6 14 -3 10 3 28 0 40 -6 18 -10 20 -9 14
6 -5 15 -3 16 8 5 19 -17 29 -15 22 6 -4 11 1 8 15 -8 19 -21 21 -22 16 -5 -5
19 -5 19 9 3 16 -20 29 -14 19 10 -5 14 -4 15 10 2 9 -8 14 -18 11 -22 -2 -4
3 -5 11 -2 9 3 13 11 10 16 -4 7 0 7 12 0 27 -14 31 -14 64 3 17 9 30 12 30 7
0 -5 7 -9 15 -9 8 0 15 5 15 11 0 7 3 7 8 1 10 -14 56 -15 64 -1 6 8 8 8 8 -1
0 -14 40 -13 40 2 0 6 3 7 8 0 11 -15 64 -17 57 -2 -4 7 1 3 9 -7 9 -11 16
-14 16 -7 0 7 5 9 11 5 17 -10 110 -13 103 -3 -3 5 1 7 8 4 33 -11 68 -13 68
-3 0 6 10 3 21 -8 l22 -19 -13 25 c-11 22 -11 23 1 13 21 -17 69 -24 69 -10 0
7 4 6 10 -3 7 -11 10 -11 10 -2 0 9 5 10 19 2 26 -13 34 -13 25 2 -5 7 -3 8 7
2 19 -12 42 -11 51 1 5 6 8 5 8 -2 0 -7 5 -13 11 -13 5 0 7 6 3 13 -4 6 3 3
15 -8 27 -24 24 -23 44 -6 11 8 17 9 17 3 0 -13 31 -4 42 12 5 7 8 5 8 -4 0
-9 9 -15 24 -15 13 0 23 2 20 4 -2 2 4 10 14 17 14 10 20 10 35 -3 14 -13 17
-13 17 -2 1 11 3 10 13 -2 10 -13 15 -14 24 -4 7 7 10 15 7 17 -7 8 31 2 45
-7 10 -6 13 -4 9 6 -4 10 4 14 33 14 20 1 35 -3 33 -7 -10 -15 9 -8 23 10 8 9
12 12 9 6 -3 -7 1 -17 9 -24 13 -11 14 -10 8 6 -6 17 -5 18 12 4 10 -8 16 -10
12 -3 -4 6 -3 14 3 18 5 3 10 0 10 -7 0 -9 3 -9 10 2 8 13 10 13 10 -2 0 -9 4
-20 10 -23 6 -4 7 1 3 12 -6 16 -5 17 12 3 17 -14 17 -13 11 10 -6 20 -5 22 4
8 7 -11 17 -15 28 -11 15 6 16 5 2 -13 -14 -19 -14 -19 8 0 12 11 22 15 22 10
0 -5 5 -2 10 6 8 12 10 12 11 -5 l0 -20 9 20 c5 11 9 14 9 6 1 -11 4 -11 18 0
9 8 14 9 11 4 -4 -6 3 -17 15 -25 20 -12 21 -12 8 4 -13 15 -12 17 14 12 16
-3 32 -11 37 -18 5 -9 8 -7 8 6 0 20 0 20 16 0 8 -10 13 -13 9 -6 -5 9 6 12
39 10 25 0 46 -6 46 -12 0 -5 7 -1 16 10 8 10 13 12 9 4 -4 -8 1 -6 11 5 13
16 16 17 11 3 -3 -10 -2 -20 3 -23 6 -4 10 1 10 10 0 11 4 14 15 8 21 -12 87
-4 78 10 -4 6 -1 7 8 1 20 -13 101 -13 118 0 11 8 13 8 8 0 -4 -7 2 -11 18
-11 14 -1 22 3 20 7 -7 11 22 6 32 -5 4 -4 2 -5 -6 0 -10 6 -12 4 -6 -4 5 -8
11 -9 17 -3 5 5 25 8 43 5 19 -2 43 1 56 7 14 8 19 8 15 1 -4 -6 -3 -11 3 -11
5 0 12 6 14 13 4 9 6 9 6 0 1 -7 6 -13 12 -13 5 0 7 6 3 13 -6 9 -5 9 7 0 12
-10 18 -10 29 0 10 9 11 9 6 0 -9 -16 -1 -16 26 -2 15 8 19 8 14 0 -5 -8 4 -9
31 -5 59 10 124 10 130 1 3 -5 9 -3 14 4 6 9 9 10 9 2 0 -23 30 -6 60 35 16
23 34 42 40 42 5 0 7 6 4 14 -3 8 0 17 7 22 8 5 10 3 4 -6 -5 -9 -4 -11 4 -6
8 5 9 12 2 20 -7 9 -5 17 9 29 11 9 20 22 20 29 0 9 -3 8 -10 -2 -5 -8 -10
-10 -10 -4 0 6 7 17 15 24 9 7 13 15 10 18 -3 3 0 11 6 19 6 7 8 13 3 13 -5 0
-2 5 6 10 11 7 11 10 2 10 -10 0 -10 5 -2 20 12 22 10 41 -5 52 -6 5 -4 8 5 8
10 0 15 11 15 34 0 19 -4 32 -9 29 -5 -3 -7 6 -4 21 3 14 1 29 -5 33 -6 4 -7
1 -2 -7 6 -9 4 -11 -4 -5 -9 5 -9 11 -3 17 12 12 4 40 -9 32 -5 -3 -9 7 -9 21
0 15 -4 24 -10 20 -5 -3 -10 -1 -10 5 0 7 -7 10 -15 6 -8 -3 -14 -2 -14 2 3
20 -2 32 -15 32 -8 0 -16 4 -18 9 -1 6 -15 11 -30 13 -15 2 -31 8 -35 13 -5 4
-2 5 6 0 10 -5 12 -4 7 4 -4 6 -15 10 -24 9 -9 -2 -17 2 -17 9 0 6 -4 15 -9
20 -5 5 -6 3 -2 -4 12 -21 -8 -15 -24 7 -16 22 -36 28 -24 8 5 -9 3 -9 -9 1
-9 7 -14 18 -10 25 4 6 -1 5 -11 -3 -15 -12 -17 -12 -14 0 2 8 -3 13 -9 12 -7
-2 -13 3 -13 11 0 8 -5 18 -12 22 -7 4 -8 3 -4 -4 4 -7 2 -12 -5 -12 -6 0 -9
8 -6 20 3 11 0 23 -5 27 -7 4 -8 1 -3 -7 6 -9 4 -11 -4 -6 -7 5 -10 14 -7 22
3 8 1 14 -4 14 -6 0 -10 14 -10 31 0 24 4 30 15 25 8 -3 15 -2 15 2 0 4 29 7
65 7 36 0 65 -3 65 -7 0 -11 23 -5 32 7 5 6 8 5 8 -3 0 -10 27 -12 123 -8 206
9 201 7 258 109 73 131 86 169 115 327 2 14 6 35 9 47 3 13 8 49 11 80 4 32
10 59 15 61 4 2 5 10 2 18 -3 8 0 21 6 28 8 10 9 16 1 21 -6 4 -7 12 -1 23 6
11 6 24 0 35 -6 9 -7 17 -3 17 3 0 1 7 -6 15 -10 12 -10 15 1 15 10 0 10 3 3
8 -6 4 -11 25 -11 47 0 22 -5 56 -11 75 -6 19 -13 46 -16 60 -3 14 -7 36 -10
50 -3 13 -8 42 -12 64 -3 22 -8 44 -10 48 -5 7 -7 17 -17 63 -2 6 -6 16 -11
23 -4 7 -5 16 -2 19 3 3 1 12 -5 20 -6 7 -8 13 -5 13 4 0 -5 22 -20 50 -24 44
-87 100 -114 100 -5 0 -10 5 -10 10 0 6 -3 9 -7 9 -22 -4 -33 3 -34 19 0 14
-2 14 -9 -3 -7 -17 -9 -17 -9 -2 -1 12 -9 17 -31 17 -46 0 -80 20 -80 47 0 13
16 46 35 73 19 28 32 50 29 50 -4 0 -2 6 3 13 6 6 20 42 32 80 13 37 26 67 30
67 4 0 24 37 45 83 20 45 40 89 44 97 9 17 7 357 -1 410 -4 19 -8 56 -11 83
-3 26 -7 51 -11 56 -5 10 -19 137 -19 183 0 18 -4 24 -11 18 -7 -6 -11 -2 -11
11 0 11 5 18 11 16 5 -3 11 7 12 21 1 18 -1 21 -8 11 -7 -12 -10 -12 -21 0 -7
8 -8 11 -2 8 7 -4 14 0 18 8 3 8 1 15 -4 15 -6 0 -10 5 -10 11 0 5 5 7 11 3 7
-4 10 -1 7 7 -3 8 -11 13 -17 11 -7 -1 -9 2 -6 8 4 6 14 9 24 5 9 -3 3 6 -14
20 -16 15 -24 24 -17 20 13 -7 17 7 5 19 -4 3 -7 15 -8 26 -1 14 2 17 10 10 9
-7 11 4 9 42 -1 29 -7 54 -13 56 -6 2 -11 8 -11 13 0 6 6 7 13 3 8 -5 8 -2 -2
9 -16 20 -1 23 18 5 11 -10 10 -8 0 10 -8 12 -16 22 -20 22 -3 0 -5 13 -5 29
0 17 3 28 7 26 3 -3 4 10 2 28 -3 17 -6 43 -7 57 -2 14 -8 35 -15 48 -9 17 -9
22 1 22 10 0 10 2 0 9 -7 4 -12 12 -10 17 1 5 -6 21 -16 37 -15 23 -16 30 -5
43 16 19 20 55 7 71 -5 7 -5 13 1 17 13 8 -22 96 -44 109 -14 7 -16 7 -10 -4
6 -11 5 -12 -6 -1 -15 14 -23 15 -33 5z m-676 -309 c0 -8 5 -14 11 -14 5 0 7
5 3 12 -4 7 -3 8 4 4 12 -7 26 -11 85 -20 40 -6 144 -52 164 -71 7 -8 13 -18
13 -24 0 -6 5 -11 12 -11 6 0 9 -3 5 -6 -3 -3 5 -17 18 -30 13 -13 29 -43 35
-67 6 -23 15 -55 20 -72 6 -16 11 -65 12 -107 2 -43 5 -78 8 -78 9 0 5 -65 -5
-80 -5 -8 -4 -11 2 -7 7 4 11 -2 11 -16 -1 -12 3 -40 7 -62 5 -22 10 -71 11
-110 5 -116 13 -257 19 -312 10 -95 13 -181 5 -192 -4 -7 -28 -18 -54 -26 -26
-8 -44 -11 -42 -6 3 4 -18 2 -47 -6 -29 -8 -65 -16 -82 -18 -70 -10 -98 -16
-106 -21 -5 -3 -35 -7 -66 -8 -32 -2 -65 -6 -73 -9 -8 -3 -22 -5 -30 -5 -8 0
-19 -1 -25 -2 -20 -5 -36 0 -30 10 3 6 2 10 -3 10 -9 0 -10 36 0 45 7 8 -14
68 -27 77 -6 5 -5 8 4 8 11 0 11 3 0 16 -12 15 -11 16 11 9 24 -7 24 -7 5 8
-11 8 -24 13 -29 10 -5 -4 -6 -1 -2 6 4 6 11 9 16 6 5 -3 11 -1 15 5 3 6 -4
10 -17 10 -19 0 -20 2 -8 10 13 9 13 11 0 20 -13 8 -12 10 3 10 15 0 16 3 5
23 -14 25 -19 79 -7 72 4 -3 9 1 12 7 5 17 -3 39 -12 33 -4 -2 -8 2 -8 10 0 8
4 12 8 10 14 -10 17 23 3 43 -10 15 -11 23 -3 28 8 4 9 3 5 -4 -5 -8 -2 -10 9
-6 12 5 13 10 4 20 -6 7 -11 28 -13 46 -1 18 -6 40 -11 48 -8 13 -7 13 8 1 9
-7 15 -17 12 -21 -3 -5 -2 -11 3 -14 4 -2 8 11 7 31 0 22 -7 40 -20 50 -16 13
-17 15 -2 10 20 -7 22 3 5 22 -11 11 -10 13 3 8 10 -3 16 1 16 9 0 8 -6 13
-13 10 -8 -3 -16 0 -20 6 -5 7 -2 8 6 3 10 -6 12 -4 6 10 -5 14 -4 15 7 7 10
-8 13 -6 13 8 0 10 -3 17 -6 15 -3 -1 -12 4 -20 13 -13 14 -12 15 3 9 9 -3 17
-3 18 1 0 4 2 15 4 24 2 10 -4 22 -13 28 -10 5 -12 10 -6 10 7 0 12 6 11 13
-1 34 4 48 16 42 6 -4 5 0 -4 7 -15 12 -15 17 -3 41 9 16 10 27 4 27 -5 0 -10
5 -10 11 0 5 4 7 10 4 6 -3 7 1 4 9 -3 9 -11 13 -16 10 -6 -4 -6 1 0 13 11 21
11 41 -1 60 -4 6 -3 14 2 17 11 7 9 25 -3 45 -7 10 -6 12 4 6 10 -6 12 -3 8
13 -4 14 -2 19 7 15 17 -6 14 19 -5 43 -13 16 -13 17 2 12 17 -7 20 14 3 29
-4 4 -5 2 0 -6 5 -9 4 -12 -3 -8 -12 8 -4 47 10 47 5 0 6 -5 2 -12 -4 -7 -3
-8 4 -4 8 5 8 15 1 32 -8 21 -7 25 5 21 11 -4 13 1 10 21 -3 20 -2 23 5 12 9
-12 11 -12 17 3 5 14 9 15 20 6 11 -9 14 -8 14 2 0 11 3 11 11 -1 9 -12 10
-11 6 8 -3 12 -1 20 4 16 5 -3 9 -12 9 -20z m-369 -48 c25 -1 50 -5 56 -9 7
-5 10 -78 8 -239 -2 -128 -3 -236 -4 -239 0 -4 -12 -10 -26 -13 -14 -4 -23
-11 -20 -16 3 -6 1 -10 -5 -10 -6 0 -15 -11 -22 -25 -6 -13 -15 -22 -21 -18
-6 4 -7 -4 -3 -21 3 -14 3 -26 -1 -26 -5 0 -8 -52 -8 -115 0 -70 -4 -115 -10
-115 -7 0 -7 -3 0 -8 6 -4 10 -13 11 -19 1 -7 2 -19 3 -26 0 -8 21 -28 46 -46
25 -18 50 -42 56 -53 7 -12 13 -89 15 -181 l3 -159 -42 -43 c-39 -39 -51 -45
-152 -70 -60 -14 -119 -28 -130 -30 -11 -2 -31 -7 -45 -10 -14 -3 -47 -8 -75
-10 -61 -4 -131 -13 -165 -20 -26 -5 -114 -15 -190 -20 -25 -2 -73 -6 -108
-10 -35 -3 -72 -3 -82 0 -20 6 -45 58 -36 73 3 6 8 45 10 88 3 44 8 88 12 98
4 12 4 17 -2 13 -5 -3 -10 3 -10 13 0 10 3 17 7 14 4 -2 9 5 12 16 3 11 1 17
-4 14 -10 -6 -7 32 4 42 12 12 8 26 -5 18 -6 -4 -4 3 5 16 12 17 13 28 6 42
-8 15 -6 24 8 41 10 11 12 17 6 13 -7 -4 -13 -3 -13 3 0 5 6 12 13 15 9 5 9 7
-2 12 -8 4 -9 9 -3 13 10 6 20 54 27 126 2 22 6 52 10 68 5 17 2 33 -5 42 -11
13 -10 14 4 9 19 -7 21 6 4 25 -11 11 -10 12 0 7 10 -6 12 1 9 33 -2 22 0 38
5 35 4 -3 8 -1 8 5 0 5 3 18 6 28 5 15 4 15 -5 3 -6 -9 -11 -10 -11 -3 0 6 7
18 15 27 10 9 11 17 5 21 -6 4 -7 12 -3 18 4 7 8 20 9 30 1 9 2 18 4 20 4 5
10 44 12 84 2 24 6 43 10 43 4 0 7 10 7 23 -1 12 2 45 6 72 5 28 9 58 9 68 0
9 4 17 8 17 4 0 8 5 8 11 0 5 -5 7 -11 3 -6 -3 -3 6 7 22 14 21 15 26 4 19
-13 -7 -13 -6 -2 7 9 11 10 18 2 23 -5 3 -10 12 -9 18 0 9 2 9 6 0 2 -7 9 -13
14 -13 6 0 5 9 -2 21 -9 17 -8 20 2 14 9 -6 11 -2 7 13 -4 15 -2 19 8 15 8 -3
14 -1 14 4 0 26 108 58 136 40 6 -3 16 -2 24 3 8 5 21 5 30 0 9 -5 22 -5 30 0
8 5 22 4 32 -1 10 -5 18 -6 18 -2 0 9 57 9 66 0 4 -4 12 -3 18 0 10 7 138 15
264 17 23 1 42 6 42 11 0 6 4 4 9 -3 4 -7 28 -14 52 -16z m1054 -62 c9 -15 15
-37 12 -51 -3 -17 -1 -23 9 -19 13 5 13 2 -1 -59 -5 -23 -4 -26 4 -15 12 17
14 10 5 -14 -3 -9 -10 -13 -15 -10 -5 3 -6 -2 -3 -10 3 -9 10 -14 14 -11 10 6
8 -15 -3 -32 -4 -6 -2 -13 5 -15 7 -3 8 -9 3 -18 -13 -21 -15 -61 -3 -54 7 4
6 0 -1 -13 -6 -11 -7 -23 -4 -27 4 -3 7 -48 8 -100 1 -51 6 -99 11 -107 4 -8
9 -81 10 -164 1 -82 5 -172 9 -200 9 -56 10 -148 2 -169 -3 -7 -22 -23 -42
-35 -20 -11 -33 -17 -30 -11 3 5 -3 10 -14 10 -12 0 -21 -5 -21 -12 0 -9 -3
-9 -11 -1 -14 14 -41 5 -32 -11 4 -7 1 -6 -9 2 -8 7 -22 10 -31 6 -8 -3 -24 4
-35 16 -18 19 -20 37 -21 168 -2 202 -5 275 -14 290 -5 7 -3 12 3 12 7 0 8 5
3 13 -4 6 -9 35 -10 62 -4 109 -7 135 -14 135 -9 0 -6 20 4 38 5 6 4 12 0 12
-5 0 -9 71 -9 158 l0 157 34 32 c19 18 40 31 46 30 6 -1 10 4 8 11 -1 8 1 11
5 9 5 -3 19 1 33 9 40 22 75 17 95 -12z m130 -184 c3 -5 1 -10 -4 -10 -6 0
-11 5 -11 10 0 6 2 10 4 10 3 0 8 -4 11 -10z m5 -41 c0 -5 -4 -9 -8 -9 -5 0
-9 7 -9 15 0 8 4 12 9 9 4 -3 8 -9 8 -15z m-2293 -8 c-2 8 -2 11 0 7 3 -5 12
-8 21 -9 12 0 13 -2 4 -6 -10 -4 -9 -8 5 -19 12 -9 14 -13 4 -14 -8 0 -11 -6
-7 -16 3 -8 2 -12 -4 -9 -6 3 -10 1 -10 -4 0 -6 6 -11 13 -11 8 0 7 -4 -3 -10
-13 -9 -13 -10 0 -10 13 0 13 -1 0 -10 -12 -8 -12 -10 -1 -10 11 0 11 -3 1
-15 -8 -10 -9 -15 -2 -15 6 0 9 -7 6 -15 -4 -8 -11 -12 -18 -8 -8 4 -8 3 0 -6
12 -13 7 -54 -5 -47 -3 2 -7 -14 -9 -37 -1 -22 -8 -48 -15 -56 -10 -12 -9 -14
7 -7 19 7 19 6 2 -13 -13 -14 -14 -20 -4 -24 10 -4 11 -7 1 -18 -7 -7 -13 -23
-13 -35 0 -13 -5 -26 -11 -30 -8 -4 -7 -9 2 -15 11 -7 11 -9 1 -9 -7 0 -10 -4
-7 -10 3 -5 1 -10 -6 -10 -8 0 -8 -4 1 -15 7 -9 8 -15 2 -15 -5 0 -13 -7 -16
-16 -4 -10 -2 -13 6 -8 7 5 8 3 3 -6 -12 -20 -12 -60 0 -60 5 0 1 -7 -9 -15
-18 -14 -19 -15 -2 -15 17 0 17 -2 2 -25 -14 -21 -14 -24 -1 -19 11 5 13 2 9
-10 -3 -9 -11 -16 -16 -16 -6 0 -5 -7 2 -15 11 -13 10 -14 -5 -9 -13 5 -16 4
-11 -4 4 -7 1 -12 -9 -12 -10 0 -13 5 -9 12 4 7 3 8 -5 4 -6 -4 -9 -12 -6 -17
4 -5 1 -9 -4 -9 -6 0 -11 5 -11 11 0 5 -6 7 -12 3 -8 -5 -7 0 2 11 14 17 13
18 -8 13 -18 -5 -21 -4 -12 7 8 10 8 15 0 20 -8 5 -8 11 1 21 9 11 8 14 -2 14
-11 0 -11 2 1 10 13 9 13 10 0 10 -13 0 -13 1 0 10 13 8 13 10 1 10 -11 0 -10
4 4 13 14 11 15 16 5 22 -9 6 -11 4 -5 -5 5 -8 4 -11 -2 -7 -11 7 -11 46 0 64
4 6 8 23 9 37 1 14 7 26 13 26 5 0 4 4 -4 9 -9 6 -10 11 -3 15 6 4 8 14 5 23
-4 10 -2 14 4 10 6 -4 9 5 7 24 -2 16 0 28 5 24 11 -6 9 14 -3 34 -6 10 -5 12
2 7 8 -5 12 5 12 34 0 30 3 39 13 34 8 -5 8 -2 -2 9 -12 16 -9 21 12 18 4 -1
3 8 -3 19 -10 18 -7 24 12 21 8 -1 5 20 -5 36 -4 6 -1 14 5 16 10 4 9 8 -2 16
-12 8 -12 11 -1 11 10 0 11 3 3 13 -9 10 -7 19 5 37 9 13 11 20 4 15 -10 -6
-11 -3 -2 12 6 11 7 24 3 29 -4 5 2 2 12 -6 13 -10 17 -10 12 -2 -4 7 -2 12 4
12 6 0 8 6 4 13 -4 6 3 3 15 -7 15 -14 21 -16 18 -5z m1161 -346 c5 -11 6 -31
2 -45 -3 -14 -6 -67 -5 -118 2 -71 -1 -97 -13 -108 -12 -13 -17 -13 -35 -1
-11 7 -22 22 -24 33 -5 23 -4 76 2 82 2 2 0 15 -5 28 -6 15 -6 24 0 24 6 0 6
9 0 24 -6 16 -5 28 3 36 8 9 8 11 1 7 -7 -4 -11 3 -11 18 0 14 3 22 8 19 5 -3
6 2 2 11 -15 41 57 31 75 -10z m182 -65 c0 -5 -2 -10 -4 -10 -3 0 -8 5 -11 10
-3 6 -1 10 4 10 6 0 11 -4 11 -10z m-3890 -330 c47 -1 105 -1 130 -2 116 -1
188 0 220 4 53 7 70 -6 67 -51 -1 -22 -5 -37 -9 -34 -5 2 -8 -1 -8 -7 0 -6 -5
-8 -12 -4 -8 5 -7 0 2 -11 12 -15 12 -17 1 -10 -11 6 -13 3 -9 -13 4 -13 0
-26 -11 -34 -14 -12 -15 -11 -2 5 9 11 10 17 2 17 -10 0 -15 -14 -12 -33 1 -4
-6 -10 -14 -13 -8 -3 -12 -11 -8 -18 4 -7 1 -7 -7 1 -11 10 -16 9 -27 -5 -8
-9 -11 -11 -7 -3 5 11 0 13 -25 9 -18 -3 -31 0 -31 6 0 6 -5 4 -10 -4 -5 -8
-10 -11 -10 -6 0 5 -6 3 -14 -3 -10 -8 -16 -9 -21 -1 -4 7 -12 7 -26 0 -13 -8
-19 -7 -19 0 0 6 -5 8 -12 3 -18 -11 -38 -13 -38 -3 0 4 -12 5 -27 3 -27 -4
-175 -11 -256 -12 -28 -1 -36 -4 -31 -13 6 -10 4 -10 -8 0 -17 14 -39 13 -50
-3 -5 -6 -8 -5 -8 3 0 9 -5 10 -17 4 -10 -5 -35 -8 -55 -8 -21 1 -38 -2 -38
-6 0 -4 -7 -5 -15 -2 -8 4 -15 1 -15 -5 0 -9 -5 -9 -20 -1 -11 6 -20 7 -20 2
0 -12 -73 -9 -82 3 -5 7 -8 7 -8 0 0 -6 -29 -10 -65 -11 -36 0 -65 4 -65 9 0
5 -8 3 -17 -4 -11 -10 -14 -10 -9 -1 4 7 2 12 -7 12 -11 0 -45 54 -48 78 0 4
-5 13 -11 20 -6 6 -8 12 -4 12 3 0 2 10 -3 23 -6 15 -5 31 4 47 l13 24 187 -3
c174 -2 189 -1 206 17 14 15 32 20 80 21 34 0 63 2 65 3 1 2 36 2 76 1 40 -1
111 -3 158 -3z m2474 -188 c3 -5 -1 -9 -9 -9 -8 0 -12 4 -9 9 3 4 7 8 9 8 2 0
6 -4 9 -8z m1420 -8 c3 -8 2 -12 -4 -9 -6 3 -10 10 -10 16 0 14 7 11 14 -7z
m127 -91 c13 -16 12 -17 -3 -4 -10 7 -18 15 -18 17 0 8 8 3 21 -13z m-4966
-114 c0 -13 -12 -42 -27 -65 -24 -36 -65 -121 -69 -142 -4 -24 -32 -75 -36
-64 -3 6 -8 10 -13 7 -4 -3 -10 2 -14 10 -3 8 -1 17 5 20 5 4 7 11 4 16 -4 5
1 19 9 31 9 12 16 30 16 40 0 10 5 18 11 18 5 0 8 4 4 9 -3 5 -1 12 5 16 6 4
8 10 5 15 -3 5 1 12 9 17 8 4 16 17 18 28 1 11 8 25 13 32 32 39 38 44 48 40
7 -2 12 -15 12 -28z m1944 -28 c14 -17 33 -31 41 -33 8 -2 27 -16 42 -32 16
-15 28 -25 28 -22 0 6 12 -2 45 -31 7 -7 16 -13 20 -13 3 0 20 -13 38 -30 18
-16 35 -30 38 -30 3 0 34 -27 68 -60 36 -35 67 -57 74 -54 7 4 9 4 5 -1 -11
-11 62 -77 78 -71 9 3 11 0 7 -11 -4 -10 -2 -14 4 -10 6 4 13 -2 16 -12 2 -10
18 -24 35 -32 17 -7 28 -18 24 -24 -3 -5 2 -4 11 4 15 12 17 12 11 -3 -4 -10
0 -18 10 -22 9 -3 13 -11 9 -17 -3 -6 -1 -7 5 -3 7 4 12 1 12 -6 0 -9 3 -9 10
2 8 13 10 13 10 -2 0 -17 65 -88 81 -88 5 0 12 -7 15 -15 4 -8 10 -15 16 -15
5 0 6 5 2 12 -4 6 -3 8 4 4 6 -3 9 -15 7 -25 -4 -21 20 -36 37 -24 7 4 8 1 3
-6 -8 -14 53 -83 67 -75 4 3 8 0 8 -6 0 -6 7 -18 15 -26 12 -12 15 -12 16 -2
0 7 4 3 9 -9 5 -13 15 -23 22 -23 7 0 22 -13 33 -29 14 -21 23 -27 31 -20 8 7
15 6 20 -2 4 -8 3 -9 -4 -5 -17 11 -15 -9 3 -24 8 -7 15 -9 15 -6 0 4 11 -6
25 -21 22 -26 23 -29 8 -40 -11 -8 -12 -13 -4 -13 7 0 9 -5 5 -12 -4 -6 -3 -8
3 -5 6 4 14 0 17 -9 3 -8 2 -12 -4 -9 -6 3 -10 3 -11 -2 0 -4 -2 -16 -4 -25
-2 -10 1 -20 6 -24 5 -3 7 -10 3 -15 -3 -6 -12 -5 -22 3 -14 12 -14 10 -3 -11
7 -13 9 -21 4 -18 -4 3 -17 -2 -28 -10 -20 -16 -20 -16 0 -9 20 7 20 7 0 -12
-11 -11 -24 -17 -29 -14 -5 3 -7 -2 -3 -11 4 -10 2 -16 -6 -14 -7 1 -11 -6
-11 -15 1 -10 -1 -17 -5 -16 -19 2 -31 -3 -26 -12 3 -5 1 -10 -5 -10 -6 0 -8
-4 -5 -10 3 -5 1 -10 -4 -10 -6 0 -11 -7 -11 -15 0 -10 -9 -14 -25 -13 -14 1
-25 9 -25 16 0 9 -6 12 -16 8 -8 -3 -12 -2 -9 4 6 9 -8 14 -28 11 -5 -1 -6 3
-2 9 3 6 11 7 17 4 7 -4 8 -2 4 5 -4 6 -11 9 -15 7 -4 -3 -14 6 -21 19 -7 13
-17 22 -22 19 -7 -5 -13 26 -9 49 1 5 -3 6 -9 2 -6 -3 -8 -10 -5 -15 3 -5 1
-12 -5 -15 -6 -4 -9 -3 -8 2 2 4 -3 23 -11 41 -12 28 -22 36 -42 34 -4 -1 -21
14 -38 33 -17 19 -27 35 -21 35 6 0 13 -7 16 -15 4 -8 11 -12 17 -8 5 3 7 1 3
-5 -3 -6 -2 -13 3 -16 22 -14 3 25 -22 44 -15 12 -24 26 -21 32 4 6 2 8 -3 5
-6 -4 -14 0 -17 9 -3 8 -10 13 -15 10 -5 -3 -7 3 -4 14 4 14 0 20 -12 20 -11
0 -15 5 -11 15 3 8 2 15 -3 15 -4 0 -13 12 -19 26 -7 15 -17 22 -24 18 -7 -5
-8 -3 -4 5 5 8 -9 29 -36 56 -23 24 -60 63 -80 87 -20 24 -58 68 -85 99 -26
31 -64 76 -83 99 -51 61 -60 70 -71 70 -6 0 -7 4 -4 10 3 5 -5 15 -19 21 -14
7 -23 16 -20 21 3 5 -3 12 -15 15 -11 3 -19 9 -16 13 3 5 -3 11 -12 14 -10 3
-24 19 -31 35 -10 22 -18 28 -30 24 -15 -6 -15 -4 -4 10 12 14 11 16 -7 12
-16 -3 -22 2 -27 21 -3 13 -10 21 -15 18 -5 -3 -9 0 -9 6 0 6 -6 8 -12 4 -7
-4 -10 -4 -6 1 4 4 2 15 -4 24 -8 10 -4 9 10 -3 12 -11 22 -15 22 -9 0 5 -11
15 -24 23 -22 11 -23 15 -10 27 19 19 18 29 -1 13 -9 -8 -15 -9 -15 -2 0 6 4
13 9 17 5 3 10 31 10 62 0 35 4 59 13 64 18 12 17 12 47 -20z m434 -326 c-3
-9 -8 -14 -10 -11 -3 3 -2 9 2 15 9 16 15 13 8 -4z m90 -80 c-3 -9 -8 -14 -10
-11 -3 3 -2 9 2 15 9 16 15 13 8 -4z m152 -126 c11 -16 1 -19 -13 -3 -7 8 -8
14 -3 14 5 0 13 -5 16 -11z m41 -41 c0 -10 -1 -18 -3 -18 -1 0 -7 8 -12 18 -7
13 -6 19 2 19 7 0 13 -9 13 -19z m129 -138 l20 -25 -22 19 c-13 11 -23 24 -23
29 0 6 1 8 3 6 1 -2 11 -15 22 -29z m-3011 -7 c3 -7 2 -13 -2 -13 -4 0 -8 -16
-8 -35 -1 -19 3 -35 9 -35 5 0 3 -8 -4 -17 -12 -14 -12 -15 0 -9 10 7 12 3 6
-14 -6 -17 -4 -21 6 -14 9 5 7 -3 -5 -20 -11 -18 -13 -26 -5 -21 8 3 5 -1 -6
-10 -11 -9 -19 -23 -17 -31 2 -8 -2 -14 -8 -14 -6 0 -8 -4 -5 -10 3 -5 1 -10
-4 -10 -6 0 -11 -5 -11 -11 0 -5 5 -7 12 -3 7 4 1 -8 -12 -26 -13 -18 -19 -31
-14 -27 18 11 9 -32 -12 -56 -12 -13 -20 -31 -18 -41 1 -10 0 -15 -4 -12 -9
10 -40 -118 -31 -128 9 -10 0 -38 -11 -31 -4 2 -5 -7 -2 -20 2 -15 0 -25 -7
-25 -7 0 -9 -4 -6 -10 3 -5 2 -10 -4 -10 -5 0 -8 -9 -6 -20 2 -11 -1 -20 -6
-20 -6 0 -8 -4 -5 -9 11 -18 -29 -39 -66 -36 -23 3 -38 0 -38 -7 0 -6 -9 -3
-20 7 -11 10 -17 22 -14 26 3 5 0 9 -7 9 -8 0 -8 4 2 16 10 13 10 17 -2 25
-10 6 -10 9 -1 9 6 0 12 5 12 11 0 5 -5 7 -11 3 -6 -3 -4 4 4 17 9 13 17 33
19 44 2 11 10 26 18 33 13 12 13 13 0 6 -12 -7 -13 -5 -3 8 7 8 10 18 6 21 -3
4 -2 7 4 7 5 0 15 12 21 26 7 14 16 23 21 20 5 -4 8 2 7 11 -2 10 2 21 8 25 6
4 11 13 12 20 0 7 8 31 18 52 10 22 19 48 21 57 2 10 8 26 14 37 6 11 7 22 4
26 -3 3 0 6 7 6 7 0 10 3 7 7 -4 3 -2 12 5 20 6 7 8 16 5 19 -3 4 1 13 9 21 8
8 12 19 8 24 -3 5 1 12 10 15 8 3 13 11 10 18 -3 7 2 19 11 26 8 7 15 21 15
32 0 31 18 57 40 55 11 -1 22 -7 24 -14z m-234 -247 c0 -2 -8 -10 -17 -17 -16
-13 -17 -12 -4 4 13 16 21 21 21 13z m-35 -65 c3 -5 2 -12 -3 -15 -5 -3 -9 1
-9 9 0 17 3 19 12 6z m3165 -72 c15 -28 5 -23 -15 7 -9 15 -12 23 -6 20 6 -4
16 -16 21 -27z m663 -44 c-19 -24 -32 -27 -17 -3 5 7 9 16 10 21 1 4 2 10 3
13 0 3 6 2 11 -1 6 -4 3 -15 -7 -30z m-3855 -20 c-3 -3 -9 2 -12 12 -6 14 -5
15 5 6 7 -7 10 -15 7 -18z m-128 -355 c0 -5 -5 -10 -11 -10 -5 0 -7 5 -4 10 3
6 8 10 11 10 2 0 4 -4 4 -10z m90 -49 c0 -10 61 -37 73 -33 4 1 7 -5 7 -13 0
-8 4 -15 9 -15 18 0 18 -50 0 -71 -14 -16 -22 -18 -37 -10 -11 6 -22 7 -26 4
-3 -3 -6 1 -6 11 0 9 -7 19 -15 22 -8 4 -12 10 -9 15 3 5 0 9 -5 9 -6 0 -11 9
-11 20 0 11 -5 20 -11 20 -5 0 -7 5 -4 10 3 6 2 10 -4 10 -6 0 -8 6 -5 13 5
14 44 21 44 8z m3025 -463 c5 4 5 1 1 -6 -6 -10 -11 -10 -22 -1 -11 9 -14 9
-14 -1 0 -8 -3 -11 -6 -7 -12 12 7 28 20 18 7 -6 17 -7 21 -3z m-3200 -32 c0
-15 -4 -21 -9 -16 -5 5 -6 16 -3 24 9 22 12 20 12 -8z m3390 -566 c3 -6 -1 -7
-9 -4 -18 7 -21 14 -7 14 6 0 13 -4 16 -10z m-395 -44 c0 -3 -4 -8 -10 -11 -5
-3 -10 -1 -10 4 0 6 5 11 10 11 6 0 10 -2 10 -4z m2610 -2 c0 -8 -19 -13 -24
-6 -3 5 1 9 9 9 8 0 15 -2 15 -3z m-926 -32 c3 -5 -1 -9 -9 -9 -8 0 -12 4 -9
9 3 4 7 8 9 8 2 0 6 -4 9 -8z"/>
<path d="M5795 5270 c-3 -5 -1 -10 4 -10 6 0 11 5 11 10 0 6 -2 10 -4 10 -3 0
-8 -4 -11 -10z"/>
<path d="M5787 5224 c-8 -8 1 -24 12 -24 4 0 8 7 8 15 0 16 -9 20 -20 9z"/>
<path d="M5785 5000 c-3 -5 -2 -18 4 -27 7 -14 9 -12 8 10 -2 30 -3 31 -12 17z"/>
<path d="M5775 4670 c3 -5 8 -10 11 -10 2 0 4 5 4 10 0 6 -5 10 -11 10 -5 0
-7 -4 -4 -10z"/>
<path d="M5765 4470 c-3 -5 -1 -10 4 -10 6 0 11 5 11 10 0 6 -2 10 -4 10 -3 0
-8 -4 -11 -10z"/>
<path d="M635 2920 c-3 -5 -2 -10 4 -10 5 0 13 5 16 10 3 6 2 10 -4 10 -5 0
-13 -4 -16 -10z"/>
<path d="M6720 5331 c0 -6 4 -13 10 -16 6 -3 7 1 4 9 -7 18 -14 21 -14 7z"/>
<path d="M6736 5083 c-6 -14 -5 -15 5 -6 7 7 10 15 7 18 -3 3 -9 -2 -12 -12z"/>
<path d="M3915 3160 c3 -5 8 -10 11 -10 2 0 4 5 4 10 0 6 -5 10 -11 10 -5 0
-7 -4 -4 -10z"/>
<path d="M493 3145 c4 -5 0 -17 -10 -27 -9 -10 -12 -18 -7 -18 5 0 15 9 21 20
10 15 10 21 0 26 -6 4 -9 3 -4 -1z"/>
<path d="M4244 3109 c-3 -6 -2 -15 3 -20 5 -5 9 -1 9 11 0 23 -2 24 -12 9z"/>
<path d="M3971 3094 c0 -11 3 -14 6 -6 3 7 2 16 -1 19 -3 4 -6 -2 -5 -13z"/>
<path d="M4135 2870 c3 -5 8 -10 11 -10 2 0 4 5 4 10 0 6 -5 10 -11 10 -5 0
-7 -4 -4 -10z"/>
<path d="M3095 1290 c3 -5 8 -10 11 -10 2 0 4 5 4 10 0 6 -5 10 -11 10 -5 0
-7 -4 -4 -10z"/>
<path d="M5036 1281 c-3 -5 1 -11 9 -14 9 -4 12 -1 8 9 -6 16 -10 17 -17 5z"/>
</g>
</svg>
